HIERARCHY
ROOT root
{
	OFFSET	0	13.1	24.9
	CHANNELS 6  Xposition Yposition Zposition Xrotation Yrotation Zrotation
	JOINT spine_1
	{
		OFFSET	0	9.99999	0
		CHANNELS 3  Xrotation Yrotation Zrotation
		JOINT spine_2
		{
			OFFSET	0	112	-10
			CHANNELS 3  Xrotation Yrotation Zrotation
			JOINT spine_3
			{
				OFFSET	0	206.5	19.3
				CHANNELS 3  Xrotation Yrotation Zrotation
				JOINT spine_4
				{
					OFFSET	0	110.4	14.6
					CHANNELS 3  Xrotation Yrotation Zrotation
					JOINT neck_1
					{
						OFFSET	0	71.8	-50.3
						CHANNELS 3  Xrotation Yrotation Zrotation
						JOINT neck_2
						{
							OFFSET	0	86.2	-25.8
							CHANNELS 3  Xrotation Yrotation Zrotation
							JOINT head_ee
							{
								OFFSET	0	179.8	-8.7
								CHANNELS 3  Xrotation Yrotation Zrotation
								End Site
								{
									OFFSET	1	0	0
								}
							}
						}
					}
					JOINT left_clavicle
					{
						OFFSET	-43.2	22.4	-70.8
						CHANNELS 3  Xrotation Yrotation Zrotation
						JOINT left_shoulder
						{
							OFFSET	-93.9	-5.79999	48.7
							CHANNELS 3  Xrotation Yrotation Zrotation
							JOINT left_elbow
							{
								OFFSET	-291.4	-30.8	15.2
								CHANNELS 3  Xrotation Yrotation Zrotation
								JOINT left_lowarm_twist
								{
									OFFSET	-110.7	-3.89999	13.6
									CHANNELS 3  Xrotation Yrotation Zrotation
									JOINT left_hand
									{
										OFFSET	-110.7	-3.89999	13.6
										CHANNELS 3  Xrotation Yrotation Zrotation
										JOINT left_ee
										{
											OFFSET	-80.8	-5.10001	12.1
											CHANNELS 3  Xrotation Yrotation Zrotation
											End Site
											{
												OFFSET	1	0	0
											}
										}
									}
								}
							}
						}
					}
					JOINT right_clavicle
					{
						OFFSET	43.2	22.4	-70.8
						CHANNELS 3  Xrotation Yrotation Zrotation
						JOINT right_shoulder
						{
							OFFSET	93.9	-5.79999	48.7
							CHANNELS 3  Xrotation Yrotation Zrotation
							JOINT right_elbow
							{
								OFFSET	291.4	-30.8	15.2
								CHANNELS 3  Xrotation Yrotation Zrotation
								JOINT right_lowarm_twist
								{
									OFFSET	110.7	-3.89999	13.6
									CHANNELS 3  Xrotation Yrotation Zrotation
									JOINT right_hand
									{
										OFFSET	110.7	-3.89999	13.6
										CHANNELS 3  Xrotation Yrotation Zrotation
										JOINT right_ee
										{
											OFFSET	80.8	-5.10001	12.1
											CHANNELS 3  Xrotation Yrotation Zrotation
											End Site
											{
												OFFSET	1	0	0
											}
										}
									}
								}
							}
						}
					}
				}
			}
		}
	}
	JOINT left_hip
	{
		OFFSET	-82.8	-127.5	0.300001
		CHANNELS 3  Xrotation Yrotation Zrotation
		JOINT left_knee
		{
			OFFSET	-28.2	-396.7	2.2
			CHANNELS 3  Xrotation Yrotation Zrotation
			JOINT left_ankle
			{
				OFFSET	-11.7	-411.3	35.4
				CHANNELS 3  Xrotation Yrotation Zrotation
				JOINT left_toes
				{
					OFFSET	0	-60	-88.6
					CHANNELS 3  Xrotation Yrotation Zrotation
					JOINT left_foot_ee
					{
						OFFSET	-22.5	-16.5	-42.2
						CHANNELS 3  Xrotation Yrotation Zrotation
						End Site
						{
							OFFSET	1	0	0
						}
					}
				}
			}
		}
	}
	JOINT right_hip
	{
		OFFSET	82.8	-127.5	0.300001
		CHANNELS 3  Xrotation Yrotation Zrotation
		JOINT right_knee
		{
			OFFSET	28.2	-396.7	2.2
			CHANNELS 3  Xrotation Yrotation Zrotation
			JOINT right_ankle
			{
				OFFSET	11.7	-411.3	35.4
				CHANNELS 3  Xrotation Yrotation Zrotation
				JOINT right_toes
				{
					OFFSET	0	-60	-88.6
					CHANNELS 3  Xrotation Yrotation Zrotation
					JOINT right_foot_ee
					{
						OFFSET	22.5	-16.5	-42.2
						CHANNELS 3  Xrotation Yrotation Zrotation
						End Site
						{
							OFFSET	1	0	0
						}
					}
				}
			}
		}
	}
}
MOTION
Frames: 6
Frame Time: 0.02
1323.42 705.603 -926.839 159.859 -79.7864 157.87 -4.88495 0.256368 1.44999 -4.8838 0.163592 1.46336 -4.87743 -0.271696 1.44719 -4.88035 -0.0397542 1.47194 5.09523 -5.52828 -4.41648 5.15542 -5.60272 -5.32153 -0.0 0.0 -0.0 10.5634 -1.7621 20.9153 -22.0322 -14.6903 52.2912 0.370494 -10.4001 0.0337179 -33.4732 -2.28528 3.5536 4.07413 17.8363 34.2445 -0.0 0.0 -0.0 9.54625 3.81344 -18.8372 4.80948 21.8193 -46.0805 2.7269 53.4783 -1.37401 51.9918 1.11506 6.32229 -0.906914 -1.49833 5.40814 0.0 0.0 0.0 26.7526 -28.6856 4.47952 -0.547571 0.0221595 0.0811088 -15.9619 27.6309 2.53099 29.6886 -0.0 -0.0 -0.0 0.0 -0.0 -11.3593 -58.3793 9.53368 -8.22299 -0.250214 -1.2361 33.3923 5.03913 4.3156 21.9477 -0.0 -0.0 0.0 0.0 0.0 
1358.54 704.047 -917.378 154.59 -79.6132 154.099 -5.0794 -0.0148297 1.47359 -5.0782 -0.108558 1.46967 -5.07921 -0.538693 1.3717 -5.08169 -0.315322 1.43955 4.87621 -6.38342 -4.87668 4.9546 -6.6958 -5.88644 -0.0 0.0 -0.0 10.5636 -2.08404 20.9302 -22.2118 -14.4429 51.1981 0.395628 -11.0886 0.0384038 -33.1999 -2.25869 3.53074 4.28293 18.1998 35.9286 -0.0 0.0 -0.0 10.3518 1.86611 -20.4737 3.50655 21.0668 -46.8793 2.72027 53.4116 -1.36869 49.6522 0.944026 6.07633 -0.932374 -1.15646 5.72893 0.0 0.0 0.0 26.2616 -29.8254 4.26826 -5.28533 0.181246 0.790606 -14.432 28.2668 2.29445 32.0021 -0.0 -0.0 -0.0 0.0 -0.0 -15.1577 -56.97 7.26743 -14.0635 -0.319112 -2.12922 33.8198 6.39149 4.37906 22.7316 -0.0 -0.0 0.0 0.0 0.0 
1394.85 699.552 -910.831 148.592 -79.4065 149.282 -5.24221 0.00153407 1.54044 -5.2409 -0.0964795 1.53742 -5.24146 -0.551292 1.43844 -5.24421 -0.317227 1.50743 5.09289 -6.89596 -4.38535 5.17908 -7.97731 -5.34886 -0.0 0.0 -0.0 10.4468 -2.36657 20.6949 -21.9202 -14.8248 50.5793 0.420549 -11.7682 0.0433418 -33.2317 -2.26178 3.53341 4.453 18.4522 37.3153 -0.0 0.0 -0.0 10.6928 0.716575 -21.135 1.76909 20.1997 -48.4421 2.59597 52.1217 -1.26972 47.9628 0.826855 5.89453 -0.958487 -1.0043 5.97083 0.0 0.0 0.0 26.4992 -30.0667 4.04729 -9.4607 0.272414 1.42472 -15.8154 29.7282 2.54104 32.3557 -0.0 -0.0 -0.0 0.0 -0.0 -17.4725 -54.7126 6.4204 -18.5159 -0.310347 -2.81213 32.9144 7.36081 4.30404 22.9069 -0.0 -0.0 0.0 0.0 0.0 
1428.42 706.181 -902.628 143.17 -79.2621 144.556 -5.12352 0.0709758 1.45659 -5.12234 -0.0218446 1.45815 -5.12097 -0.453444 1.38604 -5.12358 -0.228878 1.44025 5.44002 -6.93445 -3.96634 5.52737 -8.36328 -4.86721 -0.0 0.0 -0.0 10.6922 -2.52002 21.222 -21.5946 -15.889 48.9079 0.446942 -12.4842 0.048886 -35.8928 -2.52533 3.75035 4.24256 20.264 36.0477 -0.0 0.0 -0.0 10.8449 1.15089 -21.4792 -0.403171 18.6896 -49.6569 2.18011 47.1955 -0.952458 46.5621 0.733827 5.74127 -0.793594 0.514903 5.532 0.0 0.0 0.0 25.7027 -30.2451 4.51607 -14.4369 0.320416 2.18651 -16.6808 30.1358 2.68917 32.7216 -0.0 -0.0 -0.0 0.0 -0.0 -19.3365 -51.74 3.70206 -20.3195 -0.291703 -3.08823 29.5702 7.33378 3.95074 23.3024 -0.0 -0.0 0.0 0.0 0.0 
1460.16 715.369 -898.741 133.402 -79.4412 134.812 -5.45557 -0.112159 1.2897 -5.45466 -0.193992 1.27995 -5.45778 -0.571829 1.16145 -5.45946 -0.381239 1.23717 3.80209 -7.20045 -4.36426 3.89582 -8.70899 -5.35343 -0.0 0.0 -0.0 10.8823 -3.51387 21.6689 -20.5486 -16.4964 48.5828 0.481998 -13.4291 0.0567463 -34.1735 -2.35389 3.61157 4.61271 19.1725 38.7378 -0.0 0.0 -0.0 10.6078 -1.0894 -20.8489 -1.5697 17.8557 -51.1257 2.0898 45.986 -0.886845 45.6468 0.675083 5.63993 -0.943666 -0.00445326 6.31236 0.0 0.0 0.0 23.7576 -29.426 5.24804 -17.2194 0.318377 2.61337 -14.0723 29.1398 2.24897 33.1038 -0.0 -0.0 -0.0 0.0 -0.0 -15.7597 -49.361 6.96454 -27.2446 -0.139702 -4.13943 29.5391 8.83506 3.97359 22.7553 -0.0 -0.0 0.0 0.0 0.0 
1490.84 717.76 -891.441 121.377 -79.4817 123.389 -5.5082 -0.243916 1.09644 -5.50759 -0.313186 1.0787 -5.51289 -0.625504 0.932974 -5.5138 -0.470316 1.02004 2.98512 -6.70937 -4.6643 3.06924 -7.71406 -5.66872 -0.0 0.0 -0.0 10.9093 -4.45708 21.7605 -18.2826 -18.0856 47.4969 0.498551 -13.8728 0.060653 -35.7113 -2.50703 3.73594 4.69453 21.2811 39.7811 -0.0 0.0 -0.0 10.4397 -1.52664 -20.4734 -2.53407 16.1086 -52.5297 1.80918 41.8633 -0.692054 45.1984 0.646896 5.58994 -0.934785 -0.516875 6.02696 0.0 0.0 0.0 21.7674 -29.7506 5.28335 -20.479 0.289636 3.11262 -13.746 26.2854 2.15881 32.282 -0.0 -0.0 -0.0 0.0 -0.0 -12.1342 -39.9069 8.34105 -38.6303 0.381934 -5.80558 31.6215 4.98644 4.13365 23.128 -0.0 -0.0 0.0 0.0 0.0 
